<svg xmlns="http://www.w3.org/2000/svg" width="272.3" height="102.2"><defs><style>.a{fill:#FFF}</style></defs><path class="a" d="M190.3 92.1v4.1a1.9 1.9 0 0 0 .2 1 1.3 1.3 0 0 0 1 .3v.4h-3.8v-.4c.8 0 1.3-.4 1.3-1.2v-3.9l-.1-.6a.5.5 0 0 0-.5-.3l-.6-.1v-.3l2.2-.8h.3v1.5a13.4 13.4 0 0 1 1.7-1 3.4 3.4 0 0 1 1.5-.4c1.3 0 2 .9 2 2.8a18.5 18.5 0 0 1-.1 2.5 4.9 4.9 0 0 1-.1 1.2c0 .5.3.7 1 .7h.4v.4h-4v-.4a1.3 1.3 0 0 0 1.1-.4c.2-.2.4-1.6.4-4.2 0-1.3-.5-2-1.5-2-.5-.1-1.3.3-2.4 1.1zM199.1 92l-1.3.6-.1-.3c0-.4.3-.8 1-1.4a2.9 2.9 0 0 1 1.8-.8 2.3 2.3 0 0 1 2 1 3 3 0 0 1 .3 1.6v2.5a5 5 0 0 0 .1 1.5c.1.2.2.4.4.4a1.2 1.2 0 0 0 .9-.4l.1.3a3.4 3.4 0 0 1-1.9 1c-.5 0-.8-.4-.9-1.1a13.7 13.7 0 0 1-1.4 1 1.9 1.9 0 0 1-.8.2 1.8 1.8 0 0 1-1.3-.4 1.6 1.6 0 0 1-.5-1.1 1.3 1.3 0 0 1 .7-1.2 5.3 5.3 0 0 1 1.6-.6 7.7 7.7 0 0 0 1.7-.7v-1.5a2.1 2.1 0 0 0-.3-1.2 1.1 1.1 0 0 0-1-.5 1.1 1.1 0 0 0-.8.3c-.2.2-.4.4-.4.6.1-.1.1.1.1.2zm2.5 4.5v-2.2a5.8 5.8 0 0 1-1.1.5l-1.2.6a1.2 1.2 0 0 0-.4.8 1 1 0 0 0 1.1 1.1c.3.1.8-.2 1.6-.8zM207.5 92v4.3a1.3 1.3 0 0 0 .3 1 2.1 2.1 0 0 0 1 .2v.4h-3.9v-.4c.5 0 .9-.1 1-.3a1.6 1.6 0 0 0 .3-1.1v-3.7l-.1-.6a.5.5 0 0 0-.5-.3l-.7-.1v-.3l2.2-.8h.3v1.5a6.5 6.5 0 0 1 3.3-1.5 1.7 1.7 0 0 1 1.8 1.5 8.3 8.3 0 0 1 3.3-1.5c1.2 0 1.9.9 1.9 2.8l-.1 3.6c0 .6.3.8 1 .8h.6v.4h-4.1v-.4h.2a1.3 1.3 0 0 0 1-.3 5.8 5.8 0 0 0 .3-2.6v-1.5c0-1.4-.5-2.1-1.4-2.1a5 5 0 0 0-2.5 1v4.3a1.4 1.4 0 0 0 .2.9c.2.2.5.2.9.2v.4H210v-.4a1.1 1.1 0 0 0 1.4-1.4v-3.5a1.8 1.8 0 0 0-.4-1.3 1.5 1.5 0 0 0-.9-.4 7.1 7.1 0 0 0-2.6 1.2zM226.2 93h-5.5l-.1.8a3.2 3.2 0 0 0 .9 2.3 2.7 2.7 0 0 0 2 .9 3.1 3.1 0 0 0 2.4-1.2l.2.2a4.1 4.1 0 0 1-3.3 1.9 3 3 0 0 1-2.3-1.1 4.5 4.5 0 0 1 .1-5.5 3.5 3.5 0 0 1 2.7-1.3 3.5 3.5 0 0 1 1.8.5 2.7 2.7 0 0 1 .8 1 3 3 0 0 0 .5.9v.6zm-5.4-.4h3.8a2.6 2.6 0 0 0-.7-1.5 1.4 1.4 0 0 0-1.2-.6c-.9 0-1.6.7-1.9 2.1zM133.3 90.1v6.3c0 .7.4 1.1 1.3 1.1v.4h-4.2v-.4a1.7 1.7 0 0 0 1.2-.3 1.6 1.6 0 0 0 .3-1.1v-3.8l-.1-.6a1 1 0 0 0-.5-.3l-.9-.2v-.3l2.4-.8zm-1.6-3.5a.8.8 0 0 1 .2-.5 1 1 0 0 1 .6-.2 1.4 1.4 0 0 1 .6.2c.2.1.2.3.2.5a.8.8 0 0 1-.2.5 1 1 0 0 1-1.2 0l-.2-.5zM138 92.1v4.1a1.9 1.9 0 0 0 .2 1 1.3 1.3 0 0 0 1 .3v.4h-3.8v-.4c.8 0 1.3-.4 1.3-1.2v-3.9l-.1-.6a.5.5 0 0 0-.5-.3l-.6-.1v-.3l2.2-.8h.3v1.5a13.4 13.4 0 0 1 1.7-1 3.4 3.4 0 0 1 1.5-.4c1.3 0 2 .9 2 2.8a18.5 18.5 0 0 1-.1 2.5 4.9 4.9 0 0 1-.1 1.2c0 .5.3.7 1 .7h.4v.4h-4v-.4a1.3 1.3 0 0 0 1.1-.4c.2-.2.4-1.6.4-4.2 0-1.3-.5-2-1.5-2a4.2 4.2 0 0 0-2.4 1.1zM151.2 87.9v8a9 9 0 0 1-1.1 4.6 3 3 0 0 1-2.8 1.7 2.8 2.8 0 0 1-1.3-.3c-.3-.2-.5-.4-.5-.7a.8.8 0 0 1 .2-.5c.1-.2.3-.2.5-.2a1.6 1.6 0 0 1 .9.4 1.6 1.6 0 0 0 1 .4c1 0 1.5-.9 1.5-2.8v-10a4 4 0 0 0-.2-1.5c-.2-.4-.6-.5-1.3-.5h-.2v-.4h4.7v.4a1.7 1.7 0 0 0-1.2.3 2.7 2.7 0 0 0-.2 1.1zM160.1 93h-5.5a2.8 2.8 0 0 0-.1.8 3.2 3.2 0 0 0 .9 2.3 2.7 2.7 0 0 0 2 .9 3.1 3.1 0 0 0 2.4-1.2l.2.2a4.1 4.1 0 0 1-3.3 1.9 3 3 0 0 1-2.3-1.1 4.5 4.5 0 0 1 .1-5.5 3.5 3.5 0 0 1 2.7-1.3 3.2 3.2 0 0 1 1.8.5 2.7 2.7 0 0 1 .8 1 3 3 0 0 0 .5.9v.6zm-5.4-.4h3.8a2.6 2.6 0 0 0-.7-1.5 1.4 1.4 0 0 0-1.2-.6c-.9 0-1.6.7-1.9 2.1zM161.3 95.9h.3a2 2 0 0 0 .7 1.3 1.6 1.6 0 0 0 1.1.5 1.4 1.4 0 0 0 1.3-1.3 1.5 1.5 0 0 0-.6-1.1 8.5 8.5 0 0 0-1.3-1l-1.1-.8a1.6 1.6 0 0 1-.4-1.2 1.8 1.8 0 0 1 .7-1.5 2.4 2.4 0 0 1 1.7-.6 4 4 0 0 1 1.5.3v1.7h-.3a1.6 1.6 0 0 0-.5-1.1 1.3 1.3 0 0 0-1-.4 1.1 1.1 0 0 0-.8.3 1 1 0 0 0-.3.7c0 .5.3.9.9 1.3l1.7 1.2a2.2 2.2 0 0 1 .9 1.7 1.8 1.8 0 0 1-.7 1.5 2.4 2.4 0 0 1-1.7.6 2 2 0 0 1-.7-.1 1.8 1.8 0 0 0-.6-.1l-.3.2h-.3l-.2-2.1zM175.7 96.9v.3l-2.5.8v-1.5A6.3 6.3 0 0 1 170 98a1.9 1.9 0 0 1-1.3-.5 1.8 1.8 0 0 1-.6-1.4v-4.2a.8.8 0 0 0-.5-.8l-.7-.2v-.3l2.4-.5v5.2a1.9 1.9 0 0 0 .5 1.3 1.6 1.6 0 0 0 1.2.4 3.3 3.3 0 0 0 2.2-1v-4l-.1-.7a1.6 1.6 0 0 0-.6-.3l-.9-.2v-.3l2.9-.5v6.3c0 .3.1.5.4.5a.8.8 0 0 0 .4-.1l.4.2zM176.7 95.9h.3a2 2 0 0 0 .7 1.3 1.6 1.6 0 0 0 1.1.5 1.4 1.4 0 0 0 1.3-1.3 1.5 1.5 0 0 0-.6-1.1 8.5 8.5 0 0 0-1.3-1l-1.1-.8a1.6 1.6 0 0 1-.4-1.2 1.8 1.8 0 0 1 .7-1.5 2.4 2.4 0 0 1 1.7-.6 4 4 0 0 1 1.5.3v1.7h-.3a1.6 1.6 0 0 0-.5-1.1 1.3 1.3 0 0 0-1-.4 1.1 1.1 0 0 0-.8.3 1 1 0 0 0-.3.7c0 .5.3.9.9 1.3l1.7 1.2a2.2 2.2 0 0 1 .9 1.7 1.8 1.8 0 0 1-.7 1.5 2.4 2.4 0 0 1-1.7.6 2 2 0 0 1-.7-.1 1.8 1.8 0 0 0-.6-.1l-.3.2h-.3l-.2-2.1zM181.5 89.7l-.1-.3c1-.6 1.4-1.2 1.4-1.9 0-.3-.1-.4-.3-.4h-.4a1.4 1.4 0 0 1-.6-.2.7.7 0 0 1-.2-.6.7.7 0 0 1 .3-.6 1 1 0 0 1 .7-.3 1 1 0 0 1 .9.4 2.1 2.1 0 0 1 .4 1.1 2.5 2.5 0 0 1-.6 1.6 2.9 2.9 0 0 1-1.5 1.2zM56.2 23.2a21.8 21.8 0 0 0-9 9.6 37.4 37.4 0 0 0-3.3 9.5 32.7 32.7 0 0 0-.7 5.1l.9-1.3a32.4 32.4 0 0 0-.5 5.6l.9-1.5-.1 4.9 2-4.9a10.3 10.3 0 0 0 .4 1.4c1.2-2.9 2.3-5.2 3.3-7.1l2.9-5.3a43.7 43.7 0 0 1 3.1-4.4q1.5-2 3.9-4.5a12 12 0 0 1 2.1-1.2l2.7-.8 3.8-.9 4.1-1a29.9 29.9 0 0 0 7.6-3c2.3-1.4 3.7-3.1 4-5a50.6 50.6 0 0 1-6.8 1l-5.6.1a35.6 35.6 0 0 0-5.1.2 24.8 24.8 0 0 0-5.4 1.2 24.8 24.8 0 0 0-5.2 2.3zm-10 3.5l-1 1.5a23.5 23.5 0 0 1 4.3-2.7l10.1-5.2a25.7 25.7 0 0 0 10-9.4 21 21 0 0 0 2.2-4.2 21.1 21.1 0 0 0 .8-2.2 4.2 4.2 0 0 0 .1-1.3 10.3 10.3 0 0 0-.1-1.8 2.8 2.8 0 0 0-.4-1.3c-.2-.2-.5-.1-.7.3a45.7 45.7 0 0 1-6.7 7.3 49.8 49.8 0 0 1-9.3 6.1A53 53 0 0 0 45 20.4a39.8 39.8 0 0 0-7.5 8.2 5.2 5.2 0 0 0-.7 1.8 2 2 0 0 1 1.3-.2l-.8 1.6 1.3-1.1a2.5 2.5 0 0 1 1.2-.7l-.3 1.1a17.8 17.8 0 0 1 3.3-2.5l-.5 1.1 1.8-1.6 2.1-1.4zm.4-23.5a4.9 4.9 0 0 0-1 2.2 5.7 5.7 0 0 0 0 2.6 6.1 6.1 0 0 0 1.1 2.3 6.7 6.7 0 0 0 2 1.7 10.9 10.9 0 0 0 2.5 1 7 7 0 0 0 2.9 0 8.3 8.3 0 0 0 2.6-1 10.6 10.6 0 0 0 2-1.7 5.4 5.4 0 0 0 1-2.2 5.3 5.3 0 0 0 0-2.5 5.3 5.3 0 0 0-1.1-2.4 6.7 6.7 0 0 0-2-1.7 7.7 7.7 0 0 0-2.5-1 7 7 0 0 0-2.9 0 5.9 5.9 0 0 0-2.6 1 6.5 6.5 0 0 0-2 1.7z"/><path class="a" d="M55.9 49.1v2a1 1 0 0 0 .2.7 1.3 1.3 0 0 0 .8.2h.2v.2h-3.4V52h.2a1.6 1.6 0 0 0 .8-.2 1.3 1.3 0 0 0 .2-.8v-5.1a1.6 1.6 0 0 0-.2-.8 1.2 1.2 0 0 0-.7-.2h-.3v-.2l1.5-.1h1.5a4.4 4.4 0 0 1 2.5.6 1.9 1.9 0 0 1 .8 1.5 1.6 1.6 0 0 1-.4 1.2 2.5 2.5 0 0 1-1.2.8 14.3 14.3 0 0 1 1.4 1.3l1 1a3.5 3.5 0 0 0 2.4 1.2v.2h-.5a5 5 0 0 1-1.9-.3 5.3 5.3 0 0 1-1.3-1.1l-.8-.8-1.2-1.1h-1.6zm0-4.2v4h.8c1.5 0 2.2-.7 2.2-2s-.8-2-2.4-2h-.6zM66.9 49.2h-3.5v.5a2 2 0 0 0 .6 1.5 1.8 1.8 0 0 0 1.3.6 1.9 1.9 0 0 0 1.5-.8l.1.1a3 3 0 0 1-2.2 1.2 1.8 1.8 0 0 1-1.5-.7 3 3 0 0 1 0-3.6 2.3 2.3 0 0 1 2.9-.5 1.3 1.3 0 0 1 .5.7 1.6 1.6 0 0 1 .3.6v.4zm-3.5-.3h2.5a3 3 0 0 0-.4-1 1.2 1.2 0 0 0-.8-.4c-.7 0-1.1.5-1.3 1.4zM69.2 44.1v7.2c0 .5.2.7.7.7h.2v.2h-2.7V52a1.6 1.6 0 0 0 .8-.2.8.8 0 0 0 .2-.6v-5.9l-.1-.4-.3-.1-.5-.1v-.2l1.7-.4zM74.7 49.2h-3.6v.5a2 2 0 0 0 .6 1.5 1.8 1.8 0 0 0 1.3.6 1.9 1.9 0 0 0 1.5-.8l.1.1a3 3 0 0 1-2.2 1.2 1.8 1.8 0 0 1-1.5-.7 3 3 0 0 1 0-3.6 2.3 2.3 0 0 1 2.9-.5 1.3 1.3 0 0 1 .5.7 1.6 1.6 0 0 1 .3.6l.1.4zm-3.5-.3h2.5a3 3 0 0 0-.4-1 1.2 1.2 0 0 0-.8-.4c-.7 0-1.1.5-1.3 1.4zM76.4 48.5l-.8.4v-.2q0-.3.6-.9a1.6 1.6 0 0 1 1.2-.5 1.6 1.6 0 0 1 1.3.6 2.1 2.1 0 0 1 .2 1v2.6c0 .2.1.2.3.2a.9.9 0 0 0 .6-.3l.1.2a2.6 2.6 0 0 1-1.2.7c-.3 0-.5-.2-.6-.7a6.8 6.8 0 0 1-.9.6.9.9 0 0 1-.5.1 1.1 1.1 0 0 1-.8-.3 1 1 0 0 1 .1-1.5 3.4 3.4 0 0 1 1-.4 2.7 2.7 0 0 0 1.1-.5v-1a1.6 1.6 0 0 0-.2-.8 1 1 0 0 0-.7-.4.8.8 0 0 0-.5.2.4.4 0 0 0-.2.4 1.3 1.3 0 0 0-.1.5zm1.6 2.9V50a4.9 4.9 0 0 1-.7.3 5.6 5.6 0 0 0-.8.4c-.2.1-.2.3-.2.5a.7.7 0 0 0 .7.7c.2.1.5-.1 1-.5zM80.5 51h.2a1.5 1.5 0 0 0 .4.8 1 1 0 0 0 .7.3 1.4 1.4 0 0 0 .6-.2c.2-.2.2-.3.2-.6a.9.9 0 0 0-.4-.7l-.8-.7a2.5 2.5 0 0 1-.7-.5 1.1 1.1 0 0 1-.3-.8 1.3 1.3 0 0 1 .4-1 1.5 1.5 0 0 1 1.1-.4 4.4 4.4 0 0 1 1 .2v1.1h-.2a1.1 1.1 0 0 0-.3-.7.9.9 0 0 0-.6-.3.7.7 0 0 0-.7.7 1 1 0 0 0 .6.8l1.1.8a1.4 1.4 0 0 1 .6 1.1 1.3 1.3 0 0 1-.4 1 1.4 1.4 0 0 1-1.1.4 1 1 0 0 1-.5-.1.8.8 0 0 0-.4-.1l-.2.2h-.2l-.1-1.3zM86.1 47.3v4.1c0 .5.3.7.9.7v.2h-2.7v-.2a1.6 1.6 0 0 0 .8-.2 1.2 1.2 0 0 0 .2-.7v-2.8l-.3-.2-.6-.1v-.2l1.6-.5h.1zm-1-2.3l.2-.3.4-.1a.6.6 0 0 1 .4.1l.2.3-.2.3-.4.1a.6.6 0 0 1-.4-.1c-.2-.1-.2-.2-.2-.3zM89.1 48.6v2.6a1.2 1.2 0 0 0 .2.7 1 1 0 0 0 .7.2v.2h-2.4v-.2a.7.7 0 0 0 .8-.8v-2.9l-.3-.2-.4-.1v-.2l1.4-.5v.9l1.1-.7a2.2 2.2 0 0 1 1-.3c.9 0 1.3.6 1.3 1.8v2.4c0 .3.2.5.7.5h.3v.2h-2.6V52a1.2 1.2 0 0 0 .7-.2c.2-.2.2-1.1.2-2.7 0-.8-.3-1.3-1-1.3a4 4 0 0 0-1.7.8zM99.2 47.7v.8l-1.2-.1a2.4 2.4 0 0 1 .2.8 1.4 1.4 0 0 1-.6 1.2 2 2 0 0 1-1.6.5 1.3 1.3 0 0 1-.6-.1 1.7 1.7 0 0 0-.4.3q-.3.1-.3.3c0 .3.6.4 1.7.4a5.8 5.8 0 0 1 1.5.1 1.6 1.6 0 0 1 .7.4 1.2 1.2 0 0 1 .4.8 1.7 1.7 0 0 1-.8 1.3 3.9 3.9 0 0 1-2.5.7 2 2 0 0 1-1.4-.4 1 1 0 0 1-.5-.8 1 1 0 0 1 .4-.8l.9-.7a1.1 1.1 0 0 1-.8-.3.9.9 0 0 1-.3-.6c0-.2.2-.4.5-.5l.8-.4a1.6 1.6 0 0 1-1.2-1.5 1.6 1.6 0 0 1 .6-1.3 2 2 0 0 1 1.5-.5 2.2 2.2 0 0 1 1.4.5 10.4 10.4 0 0 0 1.6-.1zm-1.8 1.5A1.6 1.6 0 0 0 97 48a1 1 0 0 0-.9-.4 1.1 1.1 0 0 0-.8.3 1.3 1.3 0 0 0-.4 1.1 2 2 0 0 0 .3 1.1 1.1 1.1 0 0 0 1 .6 1 1 0 0 0 .8-.4 1.7 1.7 0 0 0 .4-1.1zm-2.7 4.3a1 1 0 0 0 .5.8 2 2 0 0 0 1.3.4 2.3 2.3 0 0 0 1.4-.4 1.2 1.2 0 0 0 .6-1 .7.7 0 0 0-.8-.7 18.6 18.6 0 0 1-2.2-.1l-.5.5a.6.6 0 0 0-.3.5zM107.1 51l.2.1a2.5 2.5 0 0 1-2.1 1.3 2 2 0 0 1-1.6-.8 2.7 2.7 0 0 1-.5-1.5 2.6 2.6 0 0 1 .8-1.9 2.8 2.8 0 0 1 2-.8 3 3 0 0 1 1 .2.5.5 0 0 1 .4.5.4.4 0 0 1-.4.4c-.2 0-.4-.1-.7-.4s-.5-.4-.7-.4a1.4 1.4 0 0 0-1.1.6 2.5 2.5 0 0 0 0 3 1.4 1.4 0 0 0 1.2.6 1.8 1.8 0 0 0 1.5-.9zM109.7 48.4v2.9a.7.7 0 0 0 .8.8v.2h-2.4v-.2a1.4 1.4 0 0 0 .7-.2 1.2 1.2 0 0 0 .2-.7v-5.8c0-.2-.1-.4-.3-.4l-.5-.1v-.2l1.4-.5h.2v4a4.8 4.8 0 0 1 2-.8c.9 0 1.3.6 1.3 1.8a17.7 17.7 0 0 1-.1 2.4c0 .2.1.3.3.4h.6v.2h-2.6V52a1.4 1.4 0 0 0 .7-.2 5.2 5.2 0 0 0 .3-2.5c0-1-.4-1.5-1.1-1.5a3 3 0 0 0-1.5.6zM116.1 47.3v4.1c0 .5.3.7.9.7v.2h-2.7v-.2a1.6 1.6 0 0 0 .8-.2c.2-.1.2-.4.2-.7v-2.8l-.3-.2-.6-.1v-.2l1.6-.5h.1zm-1-2.3l.2-.3.4-.1.4.1.2.3-.2.3-.4.1-.4-.1-.2-.3zM119.1 44.1v7.2c0 .5.2.7.7.7h.2v.2h-2.7V52a1.6 1.6 0 0 0 .8-.2.8.8 0 0 0 .2-.6v-5.9l-.1-.4-.3-.1-.5-.1v-.2l1.6-.5.1.1zM124.5 47.5v-2.4a.4.4 0 0 0-.1-.3.5.5 0 0 1-.3-.1h-.4v-.2l1.7-.5v7.1c0 .3.1.4.4.4h.2l.3-.1v.3l-1.6.6h-.1v-.9a3.5 3.5 0 0 1-1.9.9 1.8 1.8 0 0 1-1.4-.7 2.5 2.5 0 0 1-.6-1.7 2.7 2.7 0 0 1 2.7-2.7l1.1.3zm0 3.8v-2.7a1.7 1.7 0 0 0-1.4-.9 1.3 1.3 0 0 0-1.1.6 2.3 2.3 0 0 0-.4 1.4 3 3 0 0 0 .5 1.6 1.5 1.5 0 0 0 1.1.7 9.2 9.2 0 0 0 1.3-.7zM128.2 49v2.4a.6.6 0 0 0 .2.5l.6.1h.5v.2h-2.9V52a.8.8 0 0 0 .6-.2 1.2 1.2 0 0 0 .2-.7v-2.8l-.8-.3v-.2l1.4-.5h.2v1.3c.3-.5.5-.9.7-1l.5-.2a.8.8 0 0 1 .4.1 4 4 0 0 1 .6.2l-.3.7a1.4 1.4 0 0 1-.6-.2.8.8 0 0 0-.4-.1c-.2 0-.3.1-.5.3a2 2 0 0 0-.4.6zM135.2 49.2h-3.5v.5a2 2 0 0 0 .6 1.5 1.8 1.8 0 0 0 1.3.6 1.9 1.9 0 0 0 1.5-.8l.1.1a3 3 0 0 1-2.2 1.2 1.8 1.8 0 0 1-1.5-.7 3 3 0 0 1 0-3.6 2.3 2.3 0 0 1 2.9-.5 1.3 1.3 0 0 1 .5.7 1.6 1.6 0 0 1 .3.6v.4zm-3.5-.3h2.5a3 3 0 0 0-.4-1 1.2 1.2 0 0 0-.8-.4c-.7 0-1.1.5-1.3 1.4zM137.5 48.6v2.6a1.2 1.2 0 0 0 .2.7 1 1 0 0 0 .7.2v.2H136v-.2a.7.7 0 0 0 .8-.8v-2.9l-.3-.2-.4-.1v-.2l1.4-.5h.2v.9l1.1-.7a2.2 2.2 0 0 1 1-.3c.9 0 1.3.6 1.3 1.8v2.4c0 .3.2.5.7.5h.3v.2h-2.6V52a1.2 1.2 0 0 0 .7-.2c.2-.2.2-1.1.2-2.7 0-.8-.3-1.3-1-1.3a3.7 3.7 0 0 0-1.9.8zM148.4 47.4l.1.5h-1.3v3.3a.8.8 0 0 0 .2.6 1.2 1.2 0 0 0 .7.2h.5v.2h-3V52a1 1 0 0 0 .7-.2l.1-.7v-3.2h-.9v-.2l.9-.3a3.5 3.5 0 0 1 .9-2.5 2.4 2.4 0 0 1 1.7-.9 3 3 0 0 1 .9.2c.2.1.4.2.4.4a.4.4 0 0 1-.1.3l-.2.2a3 3 0 0 0-1.4-.6c-.9 0-1.3.6-1.3 1.9v.9l1.1.1zM153.6 49.9a2.6 2.6 0 0 1 .8-1.9 2.9 2.9 0 0 1 1.8-.7 2.6 2.6 0 0 1 1.9.7 2.5 2.5 0 0 1 .8 1.8 2.4 2.4 0 0 1-2.5 2.5 2.5 2.5 0 0 1-1.9-.7 2 2 0 0 1-.9-1.7zm.9-.4a3.8 3.8 0 0 0 .5 1.9 1.7 1.7 0 0 0 1.3.8 1.4 1.4 0 0 0 1-.5 2.2 2.2 0 0 0 .5-1.4 2.8 2.8 0 0 0-.6-1.8 1.7 1.7 0 0 0-1.3-.8 1.4 1.4 0 0 0-1.1.6 3 3 0 0 0-.3 1.2zM160.9 48.5v2.8a.8.8 0 0 0 .2.6l.7.1v.2h-2.5V52a.8.8 0 0 0 .9-.9v-2.8l-.3-.2-.5-.1v-.2l1.5-.5h.2v1a4.6 4.6 0 0 1 2.2-1 1.2 1.2 0 0 1 1.2 1 7 7 0 0 1 2.1-1q1.2 0 1.2 1.8v2.3c0 .4.2.5.6.5h.4v.2h-2.7v-.2h.1a.8.8 0 0 0 .6-.2 4.1 4.1 0 0 0 .2-1.7v-.9c0-.9-.3-1.4-.9-1.4a3 3 0 0 0-1.6.7v2.8a.7.7 0 0 0 .8.8v.2h-2.5V52a.8.8 0 0 0 .9-.9v-2.2a1 1 0 0 0-.3-.8.7.7 0 0 0-.6-.2 2.4 2.4 0 0 0-1.9.6zM173.7 52.1v2a.7.7 0 0 0 .8.8h.3v.2h-2.9v-.2h.1a.8.8 0 0 0 .6-.2 1.2 1.2 0 0 0 .2-.7v-5.3c0-.2-.1-.3-.3-.4l-.4-.1V48l1.3-.8h.2v1.2a3.5 3.5 0 0 1 1.9-.9 1.3 1.3 0 0 1 1.2.7 2.4 2.4 0 0 1 .5 1.6 2.7 2.7 0 0 1-.8 1.9 2.5 2.5 0 0 1-1.8.8c-.1-.2-.4-.2-.9-.4zm0-3.6v2.8a2.6 2.6 0 0 0 1.4.7 1.4 1.4 0 0 0 1-.5 2 2 0 0 0 .4-1.3 2.4 2.4 0 0 0-.6-1.7 1.4 1.4 0 0 0-1-.5c-.3-.1-.7.1-1.2.5zM178.5 49.9a2.6 2.6 0 0 1 .8-1.9 2.9 2.9 0 0 1 1.8-.7 2.6 2.6 0 0 1 1.9.7 2.5 2.5 0 0 1 .8 1.8 2.4 2.4 0 0 1-2.5 2.5 2.5 2.5 0 0 1-1.9-.7 2 2 0 0 1-.9-1.7zm.9-.4a3.8 3.8 0 0 0 .5 1.9 1.7 1.7 0 0 0 1.3.8 1.4 1.4 0 0 0 1-.5 2.2 2.2 0 0 0 .5-1.4 2.8 2.8 0 0 0-.6-1.8 1.7 1.7 0 0 0-1.3-.8 1.4 1.4 0 0 0-1.1.6 3 3 0 0 0-.3 1.2zM186.9 52.3h-.4l-1.8-4c-.2-.4-.3-.6-.5-.6l-.4-.1v-.2h2.5v.2c-.5 0-.8.1-.8.3a.8.8 0 0 0 .1.4l1.3 3 1.2-2.8a.6.6 0 0 0 .1-.4c0-.3-.3-.5-.9-.5v-.2h2.1v.2a1.7 1.7 0 0 0-1 .9l-1.5 3.8zM194.1 49.2h-3.5v.5a2 2 0 0 0 .6 1.5 1.8 1.8 0 0 0 1.3.6 1.9 1.9 0 0 0 1.5-.8l.1.1a3 3 0 0 1-2.2 1.2 1.8 1.8 0 0 1-1.5-.7 3 3 0 0 1 0-3.6 2.3 2.3 0 0 1 2.9-.5 1.3 1.3 0 0 1 .5.7 1.6 1.6 0 0 1 .3.6v.4zm-3.5-.3h2.5a3 3 0 0 0-.4-1 1.2 1.2 0 0 0-.8-.4c-.7 0-1.1.5-1.3 1.4zM196.4 49v2.4a.6.6 0 0 0 .2.5l.6.1h.5v.2h-2.9V52a.8.8 0 0 0 .6-.2 1.2 1.2 0 0 0 .2-.7v-2.8l-.8-.3v-.2l1.4-.5h.2v1.3c.3-.5.5-.9.7-1l.5-.2a.8.8 0 0 1 .4.1 4 4 0 0 1 .6.2l-.3.7a1.4 1.4 0 0 1-.6-.2.8.8 0 0 0-.4-.1c-.2 0-.3.1-.5.3a2 2 0 0 0-.4.6zM200.7 47.4h1.7l-.2.5h-1.5v2.8a1.1 1.1 0 0 0 .3.8l.5.2c.2 0 .5-.2.7-.6l.2.2a1.4 1.4 0 0 1-1.3 1 1 1 0 0 1-.9-.4 1.7 1.7 0 0 1-.3-1v-3h-.6v-.2a2.4 2.4 0 0 0 1.2-1.5h.2v1.2zM206.2 51.4l1-2.6a2.5 2.5 0 0 0 .2-.7c0-.3-.2-.4-.8-.5v-.2h2v.2a1.4 1.4 0 0 0-1 1l-2.1 5.1c-.3.9-.7 1.3-1.1 1.3s-.5-.1-.5-.4.1-.3.4-.4l.6-.3a1.6 1.6 0 0 0 .4-.7l.4-.9-1.9-4a.7.7 0 0 0-.4-.5.8.8 0 0 0-.6-.2v-.2h2.4v.2c-.5 0-.7.1-.7.3a.8.8 0 0 0 .1.4l1.6 3.1zM151.5 49v2.4a.6.6 0 0 0 .2.5l.6.1h.5v.2h-2.9V52a.8.8 0 0 0 .6-.2 1.2 1.2 0 0 0 .2-.7v-2.8l-.8-.3v-.2l1.4-.5h.2v1.3c.3-.5.5-.9.7-1l.5-.2a.8.8 0 0 1 .4.1 4 4 0 0 1 .6.2l-.3.7a1.4 1.4 0 0 1-.6-.2.8.8 0 0 0-.4-.1c-.2 0-.3.1-.5.3s-.4.4-.4.6zM10.4 49.5a15.7 15.7 0 0 1 12.1-5 15.1 15.1 0 0 1 8.7 2.6 14 14 0 0 1 5.3 6.9h1.2l-.6-8.9h-.9a1.6 1.6 0 0 1-1.1.4l-4.3-1.2a30.3 30.3 0 0 0-8.6-1.3c-6.4 0-11.7 1.9-15.9 5.8A19 19 0 0 0 0 63.5a18.1 18.1 0 0 0 6.1 14.1c4 3.7 9.1 5.5 15.4 5.5a33.3 33.3 0 0 0 7.5-.9 20 20 0 0 1 5.1-.8h1.3l2-3.7a36.5 36.5 0 0 0 1.9-5.3h-1.2a5.7 5.7 0 0 1-.8 1.3A16 16 0 0 1 23 81.5 16 16 0 0 1 10.8 76a19.6 19.6 0 0 1-5.1-13.8c.2-5.1 1.7-9.4 4.7-12.7zM115.4 61.6a2 2 0 0 1 1.6 2v29.5a3.8 3.8 0 0 1-.9 2.4 4.4 4.4 0 0 1-3.2.9h-.6v1.3h14.5v-1.3h-1.5a4.5 4.5 0 0 1-3-.8 3.4 3.4 0 0 1-1.1-2.5V81.2l1.2.4a13.3 13.3 0 0 0 4.4.8 12.3 12.3 0 0 0 4.7-.9 13.4 13.4 0 0 0 4.4-3.2 13.8 13.8 0 0 0 3.9-9.7 12.7 12.7 0 0 0-2.7-8c-1.9-2.3-4-3.5-6.4-3.5s-5.6 1.5-9.5 4.5v-5.5h-1.4l-6.4 3.9v1.2l2 .4zm12.3-1.2a6.8 6.8 0 0 1 5.2 2.5c1.9 2.1 2.8 5 2.8 8.7a9.9 9.9 0 0 1-2.1 6.4 6.3 6.3 0 0 1-5.1 2.7c-2.4 0-4.8-1.1-7.3-3.3V63.3c2.3-1.9 4.5-2.9 6.5-2.9z"/><path class="a" d="M110.4 66.4c0-6.2-2-9.3-6.2-9.2-2 0-5.6 1.6-10.9 4.9-.7-3.3-2.6-4.9-5.8-4.9a11.2 11.2 0 0 0-2.4.3c-2.3.6-5.2 2.2-8.6 4.6v-4.9h-.9l-7.4 2.6v1.1l2.4.3a2 2 0 0 1 1.6 1 8.4 8.4 0 0 1 .2 2.1v12a5.8 5.8 0 0 1-.9 3.6c-.6.7-1.8 1.1-3.5 1.1v1.2h12.8V81a6 6 0 0 1-3.3-.6c-.7-.5-1-1.6-1-3.3v-14c3.6-2.4 6.3-3.5 8.2-3.5h.4a4.7 4.7 0 0 1 2.8 1.2 5.4 5.4 0 0 1 1.5 4.1v11.4a5.1 5.1 0 0 1-1.1 3.7 5 5 0 0 1-3.2 1.1h-.5v1.2h12.7v-1.2c-1.5 0-2.5-.2-3-.8a4.3 4.3 0 0 1-.8-3V63.1c3.5-2.3 6.2-3.4 8.2-3.4 3.1 0 4.6 2.3 4.6 7v4.8q0 7.8-.9 8.7a4.5 4.5 0 0 1-3.2.9h-.6v1.2h13.8v-1.2h-2c-2.2 0-3.3-.9-3.2-2.8l.2-11.9zM63.9 60.9a13 13 0 0 0-9.4-3.7 13.6 13.6 0 0 0-9.1 3.3 12.4 12.4 0 0 0-4.2 9.7 12.1 12.1 0 0 0 3.9 9.1 13.6 13.6 0 0 0 9.6 3.6 12.5 12.5 0 0 0 9.2-3.7 12.4 12.4 0 0 0 3.8-9.1 12 12 0 0 0-3.8-9.2zm-3.6 1.6a15 15 0 0 1 2.8 9.2 10.8 10.8 0 0 1-2.5 7.2 7 7 0 0 1-5.3 2.6c-2.7 0-4.9-1.3-6.8-3.8a15.8 15.8 0 0 1-2.8-9.6 10 10 0 0 1 2.3-6.7 6.8 6.8 0 0 1 5.5-2.8 8 8 0 0 1 6.8 3.9zM269.4 82.2V81h-1.3c-2.3 0-3.5-.8-3.4-2.5l.2-3.9c.2-2.2.2-5 .2-8.3 0-6.1-2.2-9.2-6.6-9.2a11.1 11.1 0 0 0-4.8 1.4c-1.1.5-3 1.6-5.8 3.3V57h-.9l-7.1 2.6v1l2.1.4a1.8 1.8 0 0 1 1.6 1 6.4 6.4 0 0 1 .2 2v12.9c0 2.6-1.4 3.9-4.1 3.9V82h12.4v-1.2c-1.7 0-2.8-.3-3.3-.8s-.8-1.6-.8-3.4V63.3c3.8-2.6 6.5-3.9 8.2-3.9 3.2 0 4.8 2.1 4.8 6.4 0 8.3-.4 12.9-1.2 13.7a4.9 4.9 0 0 1-3.6 1.2v1.2h13.2v.3zM236.1 61.2l-.3-.3a13 13 0 0 0-9.4-3.7 13.6 13.6 0 0 0-9.1 3.3 12.4 12.4 0 0 0-4.3 9.7 12.1 12.1 0 0 0 3.9 9.1 13.6 13.6 0 0 0 3.5 2.4 15 15 0 0 0 6.1 1.2 13.4 13.4 0 0 0 2-.1 13 13 0 0 0 7.3-3.6 1.4 1.4 0 0 0 .3-.4 12.5 12.5 0 0 0 3.4-8.8 12.3 12.3 0 0 0-3.4-8.8zm-10.7-2.6c2.6 0 4.8 1.3 6.7 3.9a15 15 0 0 1 2.8 9.2 10.4 10.4 0 0 1-2.5 7.2 7 7 0 0 1-5.2 2.6c-2.7 0-4.9-1.3-6.8-3.8a15.8 15.8 0 0 1-2.8-9.6 10 10 0 0 1 2.4-6.7 7 7 0 0 1 5.4-2.8zM208.7 56.9h-.9l-7.9 2.8v.9l2.9.6a2.6 2.6 0 0 1 1.8 1 9.8 9.8 0 0 1 .1 2.1v12.4a4.9 4.9 0 0 1-1.1 3.5 5.9 5.9 0 0 1-3.9 1v1.2h13.6v-1.2c-3 0-4.4-1.2-4.4-3.5V56.9zM195.8 63.8l-.1-5.6a12.1 12.1 0 0 0-4.9-.9 8 8 0 0 0-5.6 1.9 6.5 6.5 0 0 0-.8 8.9 26.8 26.8 0 0 0 3.6 2.7 22.7 22.7 0 0 1 4.2 3.4 5.7 5.7 0 0 1 2 3.7 3.6 3.6 0 0 1-1.3 2.9 4.3 4.3 0 0 1-2.1 1.1l-1 .1a3.4 3.4 0 0 1-1-.1 5.2 5.2 0 0 1-2.7-1.5 8 8 0 0 1-2.2-4.3h-1l.7 7h.9c.4-.6.7-.8 1-.8a6.8 6.8 0 0 1 2 .4 7.5 7.5 0 0 0 2.4.4 8.4 8.4 0 0 0 4.5-1.2 7.9 7.9 0 0 0 3.1-5.8 7.6 7.6 0 0 0-2.9-5.7l-5.6-3.9c-1.9-1.3-2.9-2.8-2.9-4.2a3 3 0 0 1 1.1-2.5 3.5 3.5 0 0 1 2.6-1 4.5 4.5 0 0 1 3.2 1.4 6.4 6.4 0 0 1 1.7 3.8h1.1v-.2zM178.4 63.8l-.2-5.6a12.1 12.1 0 0 0-4.9-.9 8.4 8.4 0 0 0-5.7 1.9 6.3 6.3 0 0 0-2.2 5 6 6 0 0 0 1.4 3.9 26.8 26.8 0 0 0 3.6 2.7 22.7 22.7 0 0 1 4.2 3.4 5.7 5.7 0 0 1 2 3.7 3.6 3.6 0 0 1-1.3 2.9 4.3 4.3 0 0 1-2.1 1.1l-1 .1a2.8 2.8 0 0 1-.9-.1 5.2 5.2 0 0 1-2.7-1.5 7.3 7.3 0 0 1-2.1-4.3h-1l.7 7h.9c.4-.6.7-.8 1.1-.8a7.5 7.5 0 0 1 2 .4 7.5 7.5 0 0 0 2.4.4 7.8 7.8 0 0 0 4.4-1.2 7 7 0 0 0 1-.8 6.8 6.8 0 0 0 2.2-5 7.6 7.6 0 0 0-2.9-5.7l-5.6-3.9c-1.9-1.3-2.9-2.8-2.9-4.2a3.3 3.3 0 0 1 1.1-2.5 3.6 3.6 0 0 1 2.7-1 4.5 4.5 0 0 1 3.2 1.4 6.4 6.4 0 0 1 1.7 3.8h.9v-.2zM160.4 80a1.4 1.4 0 0 1-1.4-1.1 41.4 41.4 0 0 1-.2-4.9v-8.3c0-2.7-.3-4.4-.9-5.3a7.2 7.2 0 0 0-6.5-3.2 9.3 9.3 0 0 0-6 2.6c-2.1 1.8-3.1 3.3-3.1 4.5a1.3 1.3 0 0 0 .2.8l4.2-2a3.5 3.5 0 0 1-.3-1.2 2.9 2.9 0 0 1 1.2-2.1 3.7 3.7 0 0 1 2.7-.9 4.2 4.2 0 0 1 3.4 1.8 6.2 6.2 0 0 1 1.1 4v4.9a18 18 0 0 1-5.4 2.3 14 14 0 0 0-5.1 2 4.6 4.6 0 0 0-2.1 4 4.8 4.8 0 0 0 1.5 3.7l.2.1a6.2 6.2 0 0 0 4 1.2 5.3 5.3 0 0 0 2.6-.6 7.5 7.5 0 0 0 1.2-.7l3.3-2.5a7.6 7.6 0 0 0 .6 2.5 2.4 2.4 0 0 0 2.2 1.2 6.7 6.7 0 0 0 3.2-1.2l2.9-2.1-.3-.9a5 5 0 0 1-3.2 1.4zm-9.3-7.5a31.5 31.5 0 0 0 3.6-1.7v7.3q-3.9 2.7-5.1 2.7a3.7 3.7 0 0 1-2.5-1 3.3 3.3 0 0 1-1.1-2.6 3.2 3.2 0 0 1 1.2-2.7 13 13 0 0 1 3.9-2zM267.8 55.5v.9h.3c.5 0 .8-.2.8-.5s-.1-.3-.3-.4a3.5 3.5 0 0 0-.6-.1l-.2.1zm-.7 2.9V55h.8a3.5 3.5 0 0 1 1.2.1.8.8 0 0 1 .4 1.3 1.6 1.6 0 0 1-.6.3c.2 0 .3.1.4.4l.6 1.3h-.8l-.5-1.1-.2-.3-.4-.1h-.3v1.4l-.6.1z"/><path d="M265 56.7a3.4 3.4 0 1 1 3.4 3.4 3.4 3.4 0 0 1-3.4-3.4z" fill="none" stroke="#FFF" stroke-miterlimit="10"/></svg>